<?xml version="1.0" standalone="no"?><!DOCTYPE svg PUBLIC "-//W3C//DTD SVG 1.1//EN" "http://www.w3.org/Graphics/SVG/1.1/DTD/svg11.dtd"><svg t="1586768390001" class="icon" viewBox="0 0 1024 1024" version="1.1" xmlns="http://www.w3.org/2000/svg" p-id="6921" xmlns:xlink="http://www.w3.org/1999/xlink" width="32" height="32"><defs><style type="text/css"></style></defs><path d="M512 102.4C266.24 102.4 68.266667 269.653333 68.266667 477.866667c0 92.16 37.546667 174.08 102.4 238.933333 3.413333 10.24 27.306667 92.16-64.853334 174.08 0 3.413333-3.413333 10.24-3.413333 13.653333 0 10.24 6.826667 17.066667 17.066667 17.066667h3.413333c98.986667-6.826667 184.32-54.613333 235.52-92.16 47.786667 13.653333 98.986667 23.893333 157.013333 23.893333 245.76 0 443.733333-167.253333 443.733334-375.466666S757.76 102.4 512 102.4z m34.133333 580.266667h-68.266666v-238.933334h68.266666v238.933334z m-34.133333-324.266667c-27.306667 0-51.2-23.893333-51.2-51.2s23.893333-51.2 51.2-51.2 51.2 23.893333 51.2 51.2-23.893333 51.2-51.2 51.2z" p-id="6922"></path></svg>