<?xml version="1.0" standalone="no"?><!DOCTYPE svg PUBLIC "-//W3C//DTD SVG 1.1//EN" "http://www.w3.org/Graphics/SVG/1.1/DTD/svg11.dtd"><svg t="1586767061121" class="icon" viewBox="0 0 1024 1024" version="1.1" xmlns="http://www.w3.org/2000/svg" p-id="3553" xmlns:xlink="http://www.w3.org/1999/xlink" width="32" height="32"><defs><style type="text/css"></style></defs><path d="M600.069971 588.12828H776.209913v50.752186h-176.139942zM295.556851 441.842566h65.679301v23.883382H295.556851zM295.556851 486.623907h65.679301v23.883382H295.556851zM626.938776 453.784257c14.927114 17.912536 35.825073 32.83965 62.693877 44.781341 29.854227-11.941691 53.737609-26.868805 71.650146-44.781341H626.938776zM385.119534 441.842566h65.6793v23.883382h-65.6793z" fill="" p-id="3554"></path><path d="M513.492711 35.825073c-262.717201 0-477.667638 214.950437-477.667638 477.667638s214.950437 477.667638 477.667638 477.667639 477.667638-214.950437 477.667639-477.667639-214.950437-477.667638-477.667639-477.667638z m17.912537 340.338192h152.25656c-5.970845-8.956268-14.927114-20.897959-23.883382-29.854227l23.883382-14.927114c8.956268 11.941691 17.912536 23.883382 29.854227 35.825073l-14.927114 8.956268h149.271137v65.679301h-26.868804v-41.795919h-259.731779v41.795919h-26.868804v-65.679301z m-107.475219-41.795918c17.912536 5.970845 32.83965 14.927114 44.781341 20.897959l-11.941691 20.897959c-14.927114-8.956268-29.854227-14.927114-44.781341-20.897959l11.941691-20.897959z m-170.169096 41.795918h107.475219v-41.795918h23.883382v41.795918h110.460641v23.883382h-110.460641v23.883382h89.562682v131.358601h-23.883382V537.376093h-65.6793v23.883382h-23.883382V537.376093H295.556851v26.868805h-23.883382v-137.329446h89.562683v-23.883382H253.760933v-26.868805zM220.921283 677.690962h-26.868805v-220.921283H158.227405v-23.883382h35.825073v-98.51895h26.868805v98.51895h32.83965v23.883382H220.921283v220.921283z m113.446064-26.868805c-14.927114-11.941691-29.854227-23.883382-47.766764-35.825072l14.927114-17.912537c17.912536 11.941691 32.83965 23.883382 47.766764 32.83965l-14.927114 20.897959z m173.154519-56.723032h-56.723032v38.810496c0 26.868805-14.927114 38.810496-41.795919 38.810496H358.250729c0-8.956268-2.985423-14.927114-2.985423-26.868805 17.912536 2.985423 35.825073 2.985423 50.752187 2.985423 11.941691 0 17.912536-5.970845 17.912536-17.912537v-35.825073h-179.125364v-23.883382h179.125364v-20.897959h26.868805v20.897959H507.521866v23.883382z m292.571428 83.591837H776.209913v-14.927114h-176.139942v14.927114h-26.868805V567.230321h226.892128v110.460641z m44.781342-119.41691c-62.693878-5.970845-113.446064-14.927114-155.241983-32.83965-44.781341 17.912536-101.504373 32.83965-167.183673 38.810496-2.985423-8.956268-8.956268-17.912536-14.927114-23.883382 59.708455-5.970845 107.475219-14.927114 149.271137-29.854227-23.883382-11.941691-41.795918-26.868805-53.737609-44.781341-17.912536 17.912536-35.825073 32.83965-53.73761 44.781341l-17.912536-17.912537c41.795918-26.868805 71.650146-56.723032 95.533528-89.562682l26.868804 11.941691c-5.970845 5.970845-11.941691 11.941691-14.927114 17.912536h161.212828v20.89796c-17.912536 23.883382-44.781341 41.795918-77.620991 59.708454 38.810496 11.941691 86.577259 17.912536 140.314869 17.912537-5.970845 5.970845-11.941691 14.927114-17.912536 26.868804z" fill="" p-id="3555"></path><path d="M385.119534 486.623907h65.6793v23.883382h-65.6793z" fill="" p-id="3556"></path></svg>