<?xml version="1.0" standalone="no"?><!DOCTYPE svg PUBLIC "-//W3C//DTD SVG 1.1//EN" "http://www.w3.org/Graphics/SVG/1.1/DTD/svg11.dtd"><svg t="1587088202640" class="icon" viewBox="0 0 1024 1024" version="1.1" xmlns="http://www.w3.org/2000/svg" p-id="5698" xmlns:xlink="http://www.w3.org/1999/xlink" width="32" height="32"><defs><style type="text/css"></style></defs><path d="M558.592 245.882L512 284.404l-46.592-38.522c-49.981-41.326-112.64-58.612-176.908-47.543-137.655 23.65-206.263 169.033-143.092 309.882 57.93 129.17 185.71 254.171 358.693 353.694l7.899 4.56 7.9-4.56c172.982-99.523 300.763-224.524 358.692-353.694 63.147-140.849-5.437-286.232-143.067-309.882-64.293-11.069-126.928 6.217-176.933 47.543zM747.91 126.245c188.172 32.353 278.723 230.643 197.413 411.916-67.633 150.82-211.895 285.306-388.95 387.17L512 950.856l-44.373-25.527C290.572 823.467 146.286 688.981 78.677 538.16c-81.31-181.272 9.24-379.562 197.413-411.915 87.6-15.068 171.35 9.898 235.91 63.268 64.585-53.394 148.31-78.336 235.91-63.268z" p-id="5699"></path></svg>