<?xml version="1.0" standalone="no"?><!DOCTYPE svg PUBLIC "-//W3C//DTD SVG 1.1//EN" "http://www.w3.org/Graphics/SVG/1.1/DTD/svg11.dtd"><svg t="1587088135262" class="icon" viewBox="0 0 1024 1024" version="1.1" xmlns="http://www.w3.org/2000/svg" p-id="4359" xmlns:xlink="http://www.w3.org/1999/xlink" width="32" height="32"><defs><style type="text/css"></style></defs><path d="M890.65244445 13.19822222H133.34755555c-72.36266667 0-130.95822222 58.70933333-131.072 131.072v517.57511111c0 72.24888889 58.82311111 131.072 131.072 131.072h400.49777778l205.14133334 205.14133334c8.53333333 8.53333333 19.68355555 12.74311111 30.94755555 12.74311111 11.15022222 0 22.41422222-4.20977778 30.94755556-12.74311111 17.06666667-17.06666667 17.06666667-44.71466667 0-61.78133334l-209.35111111-209.35111111c-13.65333333-13.76711111-32.19911111-21.39022222-51.54133334-21.39022222H133.34755555c-24.12088889 0-43.69066667-19.56977778-43.69066666-43.69066667V144.27022222c0-24.12088889 19.56977778-43.69066667 43.69066666-43.69066667h757.3048889c24.12088889 0 43.69066667 19.56977778 43.69066666 43.69066667v517.57511111c0 24.12088889-19.56977778 43.69066667-43.69066666 43.69066667h-98.98666667c-24.12088889 0-43.69066667 19.56977778-43.69066667 43.69066667s19.56977778 43.69066667 43.69066667 43.69066666h98.98666667c72.24888889 0 131.072-58.82311111 131.072-131.072V144.27022222c0-72.24888889-58.82311111-131.072-131.072-131.072z" p-id="4360"></path></svg>