<?xml version="1.0" standalone="no"?><!DOCTYPE svg PUBLIC "-//W3C//DTD SVG 1.1//EN" "http://www.w3.org/Graphics/SVG/1.1/DTD/svg11.dtd"><svg t="1586764446684" class="icon" viewBox="0 0 1024 1024" version="1.1" xmlns="http://www.w3.org/2000/svg" p-id="10633" xmlns:xlink="http://www.w3.org/1999/xlink" width="32" height="32"><defs><style type="text/css"></style></defs><path d="M510.7 959.4c-246.8 0-447.9-201.1-447.9-447.9 0-246.8 201.1-447.9 447.9-447.9 246.8 0 447.9 201.1 447.9 447.9 0.1 246.7-201.1 447.9-447.9 447.9z m0-855.1c-224.4 0-407.2 182.8-407.2 407.2 0 224.4 182.8 407.2 407.2 407.2 224.4 0 407.2-182.8 407.2-407.2 0-224.5-182.8-407.2-407.2-407.2z m0 0" p-id="10634" fill="#ffffff"></path><path d="M257.7 780.6c-5.4 0-10.3-2.2-14.3-5.8-5.8-5.8-7.6-15.2-4-22.8l158.1-348.5c2.2-4.5 5.8-8.1 10.3-10.3l348.5-158.1c7.6-3.6 17-1.8 22.8 4 5.8 5.8 7.6 15.2 4 22.8L624.9 610.4c-2.2 4.5-5.8 8.1-10.3 10.3L266.2 778.8c-3.2 0.9-5.9 1.8-8.5 1.8zM431 427.2l-132.6 292 292-132.6 132.6-292-292 132.6z m0 0" p-id="10635" fill="#ffffff"></path><path d="M510.3 560.3c-14.8 0-29.1-5.8-39.4-16.6-21.9-21.9-21.9-57.3 0-79.3 21.1-21.1 58.2-21.1 79.3 0 21.9 21.9 21.9 57.3 0 79.3-10.8 10.7-24.7 16.6-39.9 16.6z m0-81.6c-6.7 0-13 2.7-17.9 7.6-9.9 9.9-9.9 26 0 35.8 9.4 9.4 26.4 9.4 35.8 0 9.9-9.9 9.9-26 0-35.8-4.5-4.9-11.2-7.6-17.9-7.6z m0 0" p-id="10636" fill="#ffffff"></path></svg>