<?xml version="1.0" standalone="no"?><!DOCTYPE svg PUBLIC "-//W3C//DTD SVG 1.1//EN" "http://www.w3.org/Graphics/SVG/1.1/DTD/svg11.dtd"><svg t="1586762619802" class="icon" viewBox="0 0 1024 1024" version="1.1" xmlns="http://www.w3.org/2000/svg" p-id="9240" width="32" height="32" xmlns:xlink="http://www.w3.org/1999/xlink"><defs><style type="text/css"></style></defs><path d="M889.744 24H663.888c-61.712 0-115.952 30.112-150.56 76.784-34.64-46.672-88.832-76.784-150.56-76.784H136.928A112.768 112.768 0 0 0 24 136.928v602.256a112.768 112.768 0 0 0 112.928 112.928h225.84a112.768 112.768 0 0 1 112.928 112.928c0 21.072 16.56 37.648 37.648 37.648s37.648-16.56 37.648-37.648a112.752 112.752 0 0 1 112.928-112.928h225.856a112.768 112.768 0 0 0 112.912-112.928V136.928A112.8 112.8 0 0 0 889.744 24zM475.68 814.448c-31.616-23.344-70.752-37.648-112.928-37.648H136.928a37.28 37.28 0 0 1-37.648-37.648V136.928a37.28 37.28 0 0 1 37.648-37.648h225.84a112.8 112.8 0 0 1 112.928 112.928v602.24z m451.696-75.28a37.264 37.264 0 0 1-37.632 37.648H663.888c-42.16 0-81.296 14.304-112.928 37.648v-602.24a112.768 112.768 0 0 1 112.928-112.928h225.856a37.28 37.28 0 0 1 37.632 37.648v602.224z" p-id="9241"></path></svg>