<?xml version="1.0" standalone="no"?><!DOCTYPE svg PUBLIC "-//W3C//DTD SVG 1.1//EN" "http://www.w3.org/Graphics/SVG/1.1/DTD/svg11.dtd"><svg t="1586941194861" class="icon" viewBox="0 0 1024 1024" version="1.1" xmlns="http://www.w3.org/2000/svg" p-id="51142" xmlns:xlink="http://www.w3.org/1999/xlink" width="32" height="32"><defs><style type="text/css"></style></defs><path d="M903.68 1.28l-780.8 0c-22.4 0-40.96 18.56-40.96 40.96l0 939.52c0 22.4 18.56 40.96 40.96 40.96l780.8 0c22.4 0 40.96-18.56 40.96-40.96L944.64 42.24C944.64 19.84 926.08 1.28 903.68 1.28zM513.28 727.04 238.72 727.04 238.72 629.12l274.56 0L513.28 727.04zM787.2 511.36 238.72 511.36 238.72 413.44 787.2 413.44 787.2 511.36zM787.2 295.68 238.72 295.68 238.72 197.76 787.2 197.76 787.2 295.68z" p-id="51143"></path></svg>