<?xml version="1.0" standalone="no"?><!DOCTYPE svg PUBLIC "-//W3C//DTD SVG 1.1//EN" "http://www.w3.org/Graphics/SVG/1.1/DTD/svg11.dtd"><svg t="1586768136543" class="icon" viewBox="0 0 1024 1024" version="1.1" xmlns="http://www.w3.org/2000/svg" p-id="4628" xmlns:xlink="http://www.w3.org/1999/xlink" width="32" height="32"><defs><style type="text/css"></style></defs><path d="M614.912 325.632c23.552 21.504 35.84 50.688 35.84 87.04 0 29.696-7.68 54.784-22.528 74.24-5.632 6.656-22.528 22.528-51.712 47.616-10.752 9.728-19.456 19.968-25.088 31.232-6.656 12.288-9.728 25.6-9.728 40.96v10.24H476.672v-10.24c0-22.528 3.584-41.984 11.776-57.856 8.704-16.896 31.744-41.984 69.12-75.264l10.24-11.776c10.752-13.824 16.384-28.672 16.384-44.544 0-21.504-6.144-37.888-17.408-49.664-12.288-12.288-29.184-18.432-51.2-18.432-27.136 0-47.616 8.704-59.392 25.6-10.752 14.336-16.384 35.84-16.384 62.464H375.296c0-44.544 12.8-78.848 38.912-104.448 25.6-26.112 60.928-38.912 104.96-38.912 39.424-0.512 71.168 10.24 95.744 31.744z m-73.728 335.36c8.704 7.68 12.8 18.432 12.8 31.232 0 12.8-4.096 23.04-12.8 31.744-9.216 7.68-19.968 12.288-32.256 12.288-12.8 0-23.04-4.096-31.232-12.8-9.216-8.704-13.312-18.944-13.312-31.232 0-12.8 4.096-23.04 13.312-31.232 7.68-8.704 18.432-12.288 31.232-12.288s23.552 4.096 32.256 12.288z" p-id="4629"></path><path d="M784.896 332.288c36.864 55.296 56.832 122.88 52.736 195.584-8.704 165.888-144.896 299.52-311.296 305.152-179.712 6.144-328.704-135.68-333.824-312.832-5.632-183.296 138.752-332.8 322.048-332.8 67.072 0 129.536 20.48 181.248 55.808 10.752 7.68 25.6 7.168 35.84-1.024 17.92-12.8 16.896-39.424-1.024-51.712-65.536-44.544-145.92-69.12-231.424-66.048-199.168 8.192-360.96 168.96-370.176 367.616-10.24 226.816 176.64 414.208 403.456 403.968 200.704-9.216 361.984-173.056 368.128-374.272 2.56-82.944-21.504-160.256-64-224.256-10.24-15.36-30.72-18.944-45.056-8.192-12.8 9.728-15.872 28.672-6.656 43.008z" p-id="4630"></path></svg>