<?xml version="1.0" standalone="no"?><!DOCTYPE svg PUBLIC "-//W3C//DTD SVG 1.1//EN" "http://www.w3.org/Graphics/SVG/1.1/DTD/svg11.dtd"><svg t="1586942751012" class="icon" viewBox="0 0 1024 1024" version="1.1" xmlns="http://www.w3.org/2000/svg" p-id="60107" xmlns:xlink="http://www.w3.org/1999/xlink" width="32" height="32"><defs><style type="text/css"></style></defs><path d="M938.66624 496.810667c0 17.408-7.68 33.194667-19.797333 44.032L721.407573 717.994667a59.733333 59.733333 0 0 1-39.594666 15.018666 59.136 59.136 0 0 1-59.392-58.965333c0-17.578667 7.68-33.194667 19.797333-44.032l82.773333-74.24H459.348907a59.136 59.136 0 1 1 0-118.101333h265.472l-82.773334-74.24a58.88 58.88 0 0 1 39.68-102.997334 58.88 58.88 0 0 1 39.594667 15.274667l197.461333 177.152a58.88 58.88 0 0 1 19.797334 43.946667M370.687573 118.186667H203.775573v787.626666h166.912c32.682667 0 59.136 26.538667 59.136 59.221334a58.965333 58.965333 0 0 1-59.136 58.965333H144.55424A59.050667 59.050667 0 0 1 85.332907 965.12V59.136C85.332907 26.453333 111.871573 0 144.639573 0h226.048a59.136 59.136 0 0 1 0 118.186667" p-id="60108"></path></svg>