<?xml version="1.0" standalone="no"?><!DOCTYPE svg PUBLIC "-//W3C//DTD SVG 1.1//EN" "http://www.w3.org/Graphics/SVG/1.1/DTD/svg11.dtd"><svg t="1586762236166" class="icon" viewBox="0 0 1024 1024" version="1.1" xmlns="http://www.w3.org/2000/svg" p-id="8408" xmlns:xlink="http://www.w3.org/1999/xlink" width="128" height="128"><defs><style type="text/css"></style></defs><path d="M954.070705 780.270714l-84.967751-144.929575v-200.859412a319.712063 319.712063 0 0 0-66.646805-187.489451 381.051884 381.051884 0 0 0-172.792494-129.41562l-1.224996-0.407999a405.495812 405.495812 0 0 0-15.767954-4.643987v-10.20697a102.215701 102.215701 0 0 0-204.483401 0v9.389973a372.784908 372.784908 0 0 0-13.47196 3.929988l-0.867998 0.254999a380.541885 380.541885 0 0 0-175.803485 129.313622 320.375061 320.375061 0 0 0-67.871801 189.173445v200.859412L59.234326 790.374684a58.889827 58.889827 0 0 0 0 60.115824 38.834886 38.834886 0 0 0 42.814875 20.411941h255.157252a153.094551 153.094551 0 1 0 306.189103 0h255.157253a44.958868 44.958868 0 0 0 51.03185-50.469853 58.583828 58.583828 0 0 0-15.513954-40.161882zM510.505004 55.062839a48.326858 48.326858 0 0 1 48.837857 44.958868 371.610911 371.610911 0 0 0-16.534951-2.704992 27.19992 27.19992 0 0 0-7.04198 0l-2.908991-0.407999a125.996631 125.996631 0 0 0-46.284865 0l-2.500992 0.356999a29.087915 29.087915 0 0 0-7.297979 0c-5.102985 0.714998-10.20597 1.479996-15.002956 2.398993a48.275859 48.275859 0 0 1 48.734857-44.601869z m0 917.137313a112.269671 112.269671 0 0 1-102.062701-101.348703H612.569705a112.62667 112.62667 0 0 1-102.063701 101.348703z m408.251804-152.379554H102.2542c-3.112991 0 5.102985 7.399978 3.41899 5.102985a8.470975 8.470975 0 0 1 0-8.573975l94.509724-161.156528a25.821924 25.821924 0 0 0 3.469989-12.809962V434.686727a307.975098 307.975098 0 0 1 207.953391-269.649211 552.568381 552.568381 0 0 1 65.524808-15.309955 25.821924 25.821924 0 0 0 5.612984 0c4.133988-0.408999 8.011977-0.969997 11.736965-1.479995a104.103695 104.103695 0 0 1 15.309955-1.581996 102.726699 102.726699 0 0 1 15.309956 1.581996c3.724989 0.509999 7.602978 1.070997 11.787965 1.479995a23.88293 23.88293 0 0 0 5.102985 0 576.91031 576.91031 0 0 1 69.810796 16.686951A308.536096 308.536096 0 0 1 815.92911 434.685727v207.698391a25.821924 25.821924 0 0 0 3.469989 12.808962l90.121736 153.65555a25.515925 25.515925 0 0 0 4.643987 5.816983 7.959977 7.959977 0 0 1 2.449993 5.919983c-0.203999 4.337987 7.245979-0.764998 2.142993-0.764998z" p-id="8409"></path></svg>