<?xml version="1.0" standalone="no"?><!DOCTYPE svg PUBLIC "-//W3C//DTD SVG 1.1//EN" "http://www.w3.org/Graphics/SVG/1.1/DTD/svg11.dtd"><svg t="1586768130670" class="icon" viewBox="0 0 1024 1024" version="1.1" xmlns="http://www.w3.org/2000/svg" p-id="4492" xmlns:xlink="http://www.w3.org/1999/xlink" width="32" height="32"><defs><style type="text/css"></style></defs><path d="M512 1024C229.248 1024 0 794.752 0 512S229.248 0 512 0s512 229.248 512 512-229.248 512-512 512z m0-42.666667c259.2 0 469.333333-210.133333 469.333333-469.333333S771.2 42.666667 512 42.666667 42.666667 252.8 42.666667 512s210.133333 469.333333 469.333333 469.333333z" p-id="4493"></path><path d="M519.082667 251.562667c49.92 0 89.856 13.056 120.576 40.704 29.952 26.88 45.312 63.744 45.312 109.824 0 37.632-9.984 69.12-28.416 93.696-6.912 8.448-28.416 28.416-65.28 59.904-13.824 12.288-24.576 25.344-31.488 39.168-8.448 15.36-12.288 32.256-12.288 51.456v13.056h-82.176v-13.056c0-28.416 4.608-52.992 14.592-72.96 10.752-21.504 39.936-52.992 87.552-95.232l13.056-14.592c13.824-17.664 20.736-36.096 20.736-56.064 0-26.88-7.68-47.616-22.272-62.976-15.36-15.36-36.864-23.04-64.512-23.04-34.56 0-59.904 10.752-75.264 32.256-13.824 18.432-20.736 45.312-20.736 79.104H337.066667c0-56.064 16.128-99.84 49.152-132.096 32.256-33.024 76.8-49.152 132.864-49.152z m-13.056 449.28c16.128 0 29.952 4.608 40.704 15.36 10.752 9.984 16.128 23.04 16.128 39.168s-5.376 29.184-16.128 39.936a61.013333 61.013333 0 0 1-40.704 15.36c-16.128 0-29.184-5.376-39.168-16.128a51.2 51.2 0 0 1-16.896-39.168c0-16.128 5.376-29.184 16.896-39.168 9.984-10.752 23.04-15.36 39.168-15.36z" p-id="4494"></path></svg>