<?xml version="1.0" standalone="no"?><!DOCTYPE svg PUBLIC "-//W3C//DTD SVG 1.1//EN" "http://www.w3.org/Graphics/SVG/1.1/DTD/svg11.dtd"><svg t="1586768317777" class="icon" viewBox="0 0 1024 1024" version="1.1" xmlns="http://www.w3.org/2000/svg" p-id="6171" xmlns:xlink="http://www.w3.org/1999/xlink" width="32" height="32"><defs><style type="text/css"></style></defs><path d="M980.9 64.1L954.7 38C939 22.9 921.2 10 901.9 0H682.3c-19.3 10.1-37.1 22.9-52.8 38L386 283.8c-89.2 87.8-90.5 231.3-2.8 320.7l51.7 63 65.8-53.9-56.8-66.4c-55.8-56.2-55.8-147 0-203.2L689.1 98.8c56.2-55.8 147-55.8 203.2 0l25.5 25.5c55.8 56.2 55.8 147 0 203.2L765.7 481.9l60.2 60.2 154.4-154.4c17.4-17.6 31.8-37.9 42.6-60.2V124.3c-10.7-22.2-24.9-42.5-42-60.2z" p-id="6172"></path><path d="M43.1 960.4L68.7 986c15.7 15.1 33.5 28 52.8 38h220.2c19.3-10.1 37.1-22.9 52.8-38l245.2-245.2c89.2-87.8 90.5-231.3 2.8-320.7l-51.7-63-67.4 53.9 56.8 66.4c55.8 56.2 55.8 147 0 203.2L332.6 925.8c-56.2 55.8-147 55.8-203.2 0l-25.5-25.5C48 844 48 753.3 103.9 697l154.4-155-60.2-60.2-155 154.4c-17.2 17.8-31.4 38.3-42 60.7v203.2c10.7 22.4 24.9 42.7 42 60.3z" p-id="6173"></path></svg>